<svg width="32" height="32" viewBox="0 0 32 32" fill="none" xmlns="http://www.w3.org/2000/svg">
    <path d="M15.1924 1.10573C15.5919 0.558782 16.4081 0.558782 16.8076 1.10573L17.8262 2.50047C18.1381 2.92754 18.7286 3.03793 19.1737 2.75237L20.6274 1.81978C21.1975 1.45407 21.9586 1.74892 22.1335 2.40323L22.5795 4.07176C22.716 4.58267 23.2268 4.89891 23.745 4.79343L25.4374 4.44895C26.1011 4.31387 26.7043 4.86374 26.631 5.53705L26.4441 7.25403C26.3869 7.77977 26.749 8.25916 27.2703 8.348L28.9728 8.63816C29.6405 8.75194 30.0043 9.48257 29.6928 10.0839L28.8983 11.6175C28.655 12.0871 28.8194 12.6648 29.2734 12.936L30.7562 13.8216C31.3377 14.1689 31.413 14.9816 30.9052 15.4298L29.6104 16.5728C29.214 16.9228 29.1585 17.521 29.484 17.9378L30.5467 19.2993C30.9634 19.8332 30.7401 20.6182 30.1047 20.8527L28.4844 21.4508C27.9883 21.6339 27.7205 22.1717 27.8734 22.6779L28.3725 24.3314C28.5683 24.9797 28.0764 25.6311 27.3992 25.6202L25.6723 25.5926C25.1436 25.5842 24.6996 25.9889 24.6592 26.5162L24.5274 28.2382C24.4757 28.9136 23.7818 29.3432 23.1542 29.0885L21.5539 28.4389C21.0639 28.24 20.5038 28.457 20.2756 28.9341L19.5306 30.4923C19.2385 31.1033 18.4362 31.2533 17.943 30.7891L16.6854 29.6052C16.3004 29.2427 15.6996 29.2427 15.3146 29.6052L14.057 30.7891C13.5638 31.2533 12.7615 31.1033 12.4694 30.4923L11.7244 28.9341C11.4962 28.457 10.9361 28.24 10.4461 28.4389L8.84578 29.0885C8.21822 29.3432 7.52427 28.9136 7.47258 28.2382L7.34075 26.5162C7.30039 25.9889 6.85645 25.5842 6.32767 25.5926L4.60078 25.6202C3.92358 25.6311 3.43171 24.9797 3.62745 24.3314L4.12662 22.6779C4.27946 22.1717 4.01169 21.6339 3.51557 21.4508L1.89531 20.8527C1.25992 20.6182 1.03656 19.8332 1.45331 19.2993L2.51605 17.9378C2.84146 17.521 2.78603 16.9228 2.38956 16.5728L1.09475 15.4298C0.586997 14.9816 0.662306 14.1689 1.24378 13.8216L2.72656 12.936C3.18059 12.6648 3.34498 12.0871 3.10171 11.6175L2.30724 10.0839C1.99568 9.48257 2.35949 8.75194 3.02715 8.63816L4.72972 8.348C5.25105 8.25916 5.61307 7.77977 5.55585 7.25403L5.369 5.53705C5.29573 4.86374 5.89891 4.31387 6.56259 4.44895L8.255 4.79343C8.77322 4.89891 9.28397 4.58267 9.42053 4.07176L9.86654 2.40323C10.0414 1.74892 10.8025 1.45407 11.3726 1.81978L12.8263 2.75237C13.2714 3.03793 13.8619 2.92754 14.1738 2.50047L15.1924 1.10573Z" fill="#08E2AE"/>
    <path d="M16.4038 1.40062L17.4224 2.79537C17.8903 3.43597 18.776 3.60155 19.4437 3.17321L20.8974 2.24063C21.1824 2.05777 21.563 2.20519 21.6504 2.53235L22.0964 4.20088C22.3013 4.96724 23.0674 5.4416 23.8447 5.28338L25.5371 4.93891C25.869 4.87136 26.1706 5.1463 26.1339 5.48295L25.9471 7.19994C25.8613 7.98854 26.4043 8.70763 27.1863 8.8409L28.8888 9.13105C29.2227 9.18794 29.4046 9.55326 29.2488 9.85395L28.4543 11.3875C28.0894 12.0918 28.336 12.9585 29.0171 13.3653L30.4998 14.2509C30.7906 14.4245 30.8282 14.8309 30.5744 15.055L29.2795 16.198C28.6848 16.7229 28.6017 17.6202 29.0898 18.2455L30.1526 19.6069C30.3609 19.8739 30.2492 20.2664 29.9316 20.3837L28.3113 20.9817C27.5671 21.2564 27.1655 22.063 27.3947 22.8225L27.8939 24.4759C27.9918 24.8001 27.7458 25.1257 27.4072 25.1203L25.6803 25.0927C24.8872 25.08 24.2213 25.6871 24.1607 26.478L24.0289 28.2001C24.003 28.5377 23.6561 28.7526 23.3423 28.6252L21.742 27.9756C21.007 27.6773 20.1667 28.0028 19.8245 28.7184L19.0795 30.2766C18.9335 30.5821 18.5323 30.6571 18.2857 30.425L17.0281 29.2412C16.4505 28.6974 15.5495 28.6974 14.9719 29.2412L13.7143 30.425C13.4677 30.6571 13.0665 30.5821 12.9205 30.2766L12.1755 28.7184C11.8333 28.0028 10.993 27.6773 10.258 27.9756L8.65772 28.6252C8.34394 28.7526 7.99697 28.5377 7.97112 28.2001L7.8393 26.478C7.77875 25.6871 7.11283 25.08 6.31967 25.0927L4.59278 25.1203C4.25418 25.1257 4.00824 24.8001 4.10612 24.4759L4.60528 22.8225C4.83455 22.063 4.43289 21.2564 3.68871 20.9817L2.06844 20.3837C1.75075 20.2664 1.63907 19.8739 1.84745 19.6069L2.91018 18.2455C3.3983 17.6202 3.31516 16.7229 2.72045 16.198L1.42565 15.055C1.17177 14.8309 1.20942 14.4245 1.50016 14.2509L2.98294 13.3653C3.66398 12.9585 3.91058 12.0918 3.54567 11.3875L2.75119 9.85395C2.59542 9.55326 2.77732 9.18794 3.11115 9.13105L4.81372 8.8409C5.59571 8.70763 6.13874 7.98854 6.05292 7.19993L5.86607 5.48295C5.82943 5.1463 6.13102 4.87136 6.46286 4.93891L8.15527 5.28338C8.9326 5.4416 9.69872 4.96724 9.90357 4.20088L10.3496 2.53235C10.437 2.20519 10.8176 2.05777 11.1026 2.24063L12.5563 3.17321C13.224 3.60155 14.1097 3.43597 14.5776 2.79537L15.5962 1.40062C15.7959 1.12715 16.2041 1.12715 16.4038 1.40062Z" stroke="url(#paint0_linear_366_99840)" stroke-opacity="0.4"/>
    <defs>
        <linearGradient id="paint0_linear_366_99840" x1="16" y1="0" x2="16" y2="32" gradientUnits="userSpaceOnUse">
            <stop stop-color="white"/>
            <stop offset="1" stop-color="white" stop-opacity="0"/>
        </linearGradient>
    </defs>
</svg>
