<svg width="75" height="24" viewBox="0 0 75 24" fill="none" xmlns="http://www.w3.org/2000/svg">
<g clip-path="url(#clip0_1511_24639)">
<path d="M10.1342 4.13022C10.0023 3.35929 10.9018 2.84058 11.5043 3.34009L13.7798 5.22665C15.5192 6.66869 17.8024 7.27978 20.0307 6.89959L22.9457 6.40222C23.7174 6.27052 24.2368 7.16898 23.7367 7.77078L21.848 10.0436C20.4042 11.781 19.7925 14.0616 20.1731 16.2872L20.671 19.1988C20.8028 19.9698 19.9034 20.4885 19.3008 19.9889L17.7605 18.7119C15.6128 16.9313 12.672 16.4426 10.0628 17.4329L1.29361 20.7612C0.398796 21.1008 -0.280899 19.9249 0.460968 19.3208L7.73132 13.3993C9.89449 11.6375 10.9412 8.84931 10.4713 6.10119L10.1342 4.13022Z" fill="#FCFDFF"/>
<path d="M30.3086 17.2858H32.5285V13.0927C32.5285 12.0263 33.2032 11.4314 34.0519 11.4387C34.3712 11.4314 34.7773 11.4895 34.9877 11.562V9.58879C34.8136 9.54527 34.5814 9.50899 34.342 9.50899C33.4497 9.50899 32.8115 10.0241 32.514 11.0107H32.4559V9.62507H30.3086V17.2858ZM35.8923 17.2858H38.1195V9.62507H35.8923V17.2858ZM37.0095 8.62395C37.6915 8.62395 38.25 8.08712 38.2573 7.42697C38.25 6.76681 37.6915 6.22998 37.0095 6.22998C36.313 6.22998 35.7545 6.76681 35.7617 7.42697C35.7545 8.08712 36.313 8.62395 37.0095 8.62395ZM45.8455 12.0771C45.8019 10.4738 44.4962 9.51625 42.4939 9.51625C40.5135 9.51625 39.2293 10.4158 39.2293 11.903C39.2293 13.0637 39.9693 13.8472 41.5073 14.1446L42.8203 14.3985C43.4007 14.5146 43.7852 14.7032 43.7852 15.1095C43.7852 15.5592 43.3136 15.8131 42.6245 15.8131C41.841 15.8131 41.3332 15.4939 41.2533 14.8484H39.0553C39.1786 16.4588 40.5135 17.4091 42.6172 17.4091C44.5832 17.4091 46.0267 16.4588 46.0267 14.8991C46.0267 13.7166 45.1853 13.1072 43.7634 12.817L42.327 12.5341C41.7032 12.4035 41.4202 12.1569 41.4202 11.8087C41.4202 11.3807 41.899 11.105 42.5374 11.105C43.2339 11.105 43.7635 11.4822 43.7779 12.0771H45.8455ZM50.5803 17.4018C52.5027 17.4091 53.8449 16.4008 54.1206 14.8701H52.1183C51.9297 15.4432 51.3276 15.7986 50.6022 15.8059C49.5575 15.7986 48.9336 15.0224 48.9409 14.0285V13.9705H54.1859V13.4554C54.1859 11.0687 52.7712 9.51625 50.5296 9.50899C48.2589 9.51625 46.7936 11.1122 46.7936 13.4627C46.7936 15.8712 48.2517 17.4091 50.5803 17.4018ZM48.9409 12.6429C48.9845 11.7942 49.6227 11.1122 50.5586 11.105C51.4436 11.1122 52.1329 11.7361 52.1619 12.6429H48.9409ZM58.072 17.4018C59.1239 17.4018 59.9146 16.8941 60.3209 16.0744H60.3499V17.2858H62.5625V6.60721H60.3355V10.8583H60.3063C59.9292 10.0458 59.1312 9.50899 58.0647 9.50899C56.3817 9.50899 54.9816 10.8221 54.9743 13.4482C54.9816 16.0018 56.3092 17.4018 58.072 17.4018ZM58.8047 15.6318C57.8472 15.6318 57.216 14.8628 57.216 13.4482C57.216 12.0408 57.8472 11.2718 58.8047 11.2718C59.7913 11.2718 60.4225 12.0988 60.4079 13.4482C60.4225 14.7829 59.7986 15.6318 58.8047 15.6318ZM65.851 6.60721H63.6239V17.2858H65.851V6.60721ZM70.5737 17.4018C72.4962 17.4091 73.8382 16.4008 74.1139 14.8701H72.1116C71.923 15.4432 71.3209 15.7986 70.5955 15.8059C69.5507 15.7986 68.9269 15.0224 68.9342 14.0285V13.9705H74.1792V13.4554C74.1792 11.0687 72.7645 9.51625 70.5229 9.50899C68.2523 9.51625 66.7869 11.1122 66.7869 13.4627C66.7869 15.8712 68.245 17.4091 70.5737 17.4018ZM68.9342 12.6429C68.9777 11.7942 69.616 11.1122 70.5519 11.105C71.4369 11.1122 72.1262 11.7361 72.1552 12.6429H68.9342Z" fill="#ECEDF2"/>
</g>
<defs>
<clipPath id="clip0_1511_24639">
<rect width="74.5714" height="24" fill="white"/>
</clipPath>
</defs>
</svg>
