<svg width="48" height="48" viewBox="0 0 48 48" fill="none" xmlns="http://www.w3.org/2000/svg">
<path d="M48 24C48 37.2548 37.2548 48 24 48C10.7452 48 0 37.2548 0 24C0 10.7452 10.7452 0 24 0C37.2548 0 48 10.7452 48 24Z" fill="#F9F3DD"/>
<path fill-rule="evenodd" clip-rule="evenodd" d="M24 45C35.598 45 45 35.598 45 24C45 12.402 35.598 3 24 3C12.402 3 3 12.402 3 24C3 35.598 12.402 45 24 45ZM24 48C37.2548 48 48 37.2548 48 24C48 10.7452 37.2548 0 24 0C10.7452 0 0 10.7452 0 24C0 37.2548 10.7452 48 24 48Z" fill="#F1E5B8"/>
<g filter="url(#filter0_d_3144_210569)">
<path d="M26.6487 33.2512V36.3911L23.911 38L21.2512 36.3911V33.2512L23.911 34.8601L26.6487 33.2512ZM12 22.3911L14.6599 24V29.3846L19.24 32.1223V35.2623L12 30.9935V22.3911ZM35.822 22.3911V31.0065L28.5042 35.2753V32.1353L33.0843 29.3976V24L35.822 22.3911ZM28.4912 18.1223L31.2289 19.7312V22.8712L26.6487 25.6089V31.0843L23.9889 32.6932L21.329 31.0843V25.6089L16.5802 22.8712V19.7312L19.3179 18.1223L23.898 20.8601L28.4912 18.1223ZM16.5931 25.1288L19.253 26.7377V29.8777L16.5931 28.2688V25.1288ZM31.2289 25.1288V28.2688L28.569 29.8777V26.7377L31.2289 25.1288ZM14.6599 15.3846L17.3976 16.9935L14.6599 18.6024V21.7424L12 20.1335V16.9935L14.6599 15.3846ZM33.1622 15.3846L35.8999 16.9935V20.1335L33.1622 21.7424V18.6024L30.5023 16.9935L33.1622 15.3846ZM23.911 15.3846L26.6487 16.9935L23.911 18.6154L21.2512 17.0065L23.911 15.3846ZM23.911 10L31.2289 14.2688L28.569 15.8777L23.9889 13.1399L19.3179 15.8777L16.671 14.2688L23.911 10Z" fill="#FAC603"/>
</g>
<path fill-rule="evenodd" clip-rule="evenodd" d="M31.9996 23.6C33.697 23.6 35.3249 24.2743 36.5251 25.4745C37.7253 26.6748 38.3996 28.3026 38.3996 30C38.3996 31.6974 37.7253 33.3253 36.5251 34.5255C35.3249 35.7257 33.697 36.4 31.9996 36.4C30.3022 36.4 28.6744 35.7257 27.4741 34.5255C26.2739 33.3253 25.5996 31.6974 25.5996 30C25.5996 28.3026 26.2739 26.6748 27.4741 25.4745C28.6744 24.2743 30.3022 23.6 31.9996 23.6ZM34.9652 30.5656L32.5652 32.9656C32.4152 33.1156 32.2117 33.1999 31.9996 33.1999C31.7875 33.1999 31.584 33.1156 31.434 32.9656L29.034 30.5656C28.8883 30.4147 28.8076 30.2127 28.8095 30.0029C28.8113 29.7931 28.8954 29.5925 29.0438 29.4442C29.1921 29.2958 29.3927 29.2117 29.6025 29.2099C29.8122 29.2081 30.0143 29.2887 30.1652 29.4344L31.1996 30.4688V27.6C31.1996 27.3879 31.2839 27.1844 31.4339 27.0343C31.584 26.8843 31.7874 26.8 31.9996 26.8C32.2118 26.8 32.4153 26.8843 32.5653 27.0343C32.7153 27.1844 32.7996 27.3879 32.7996 27.6V30.4688L33.834 29.4344C33.9849 29.2887 34.187 29.2081 34.3967 29.2099C34.6065 29.2117 34.8071 29.2958 34.9555 29.4442C35.1038 29.5925 35.1879 29.7931 35.1897 30.0029C35.1916 30.2127 35.1109 30.4147 34.9652 30.5656Z" fill="#F2C41E"/>
<path d="M34.9652 30.5656L32.5652 32.9656C32.4152 33.1156 32.2117 33.1999 31.9996 33.1999C31.7875 33.1999 31.584 33.1156 31.434 32.9656L29.034 30.5656C28.8883 30.4147 28.8076 30.2127 28.8095 30.0029C28.8113 29.7931 28.8954 29.5925 29.0438 29.4442C29.1921 29.2958 29.3927 29.2117 29.6025 29.2099C29.8122 29.2081 30.0143 29.2887 30.1652 29.4344L31.1996 30.4688V27.6C31.1996 27.3879 31.2839 27.1844 31.4339 27.0343C31.584 26.8843 31.7874 26.8 31.9996 26.8C32.2118 26.8 32.4153 26.8843 32.5653 27.0343C32.7153 27.1844 32.7996 27.3879 32.7996 27.6V30.4688L33.834 29.4344C33.9849 29.2887 34.187 29.2081 34.3967 29.2099C34.6065 29.2117 34.8071 29.2958 34.9555 29.4442C35.1038 29.5925 35.1879 29.7931 35.1897 30.0029C35.1916 30.2127 35.1109 30.4147 34.9652 30.5656Z" fill="#F2C41E"/>
<path fill-rule="evenodd" clip-rule="evenodd" d="M37.9393 24.0603C36.364 22.485 34.2274 21.6 31.9996 21.6C29.7718 21.6 27.6352 22.485 26.0599 24.0603C24.4846 25.6356 23.5996 27.7722 23.5996 30C23.5996 32.2278 24.4846 34.3644 26.0599 35.9397C27.6352 37.515 29.7718 38.4 31.9996 38.4C34.2274 38.4 36.364 37.515 37.9393 35.9397C39.5146 34.3644 40.3996 32.2278 40.3996 30C40.3996 27.7722 39.5146 25.6356 37.9393 24.0603ZM36.5251 25.4745C35.3249 24.2743 33.697 23.6 31.9996 23.6C30.3022 23.6 28.6744 24.2743 27.4741 25.4745C26.2739 26.6748 25.5996 28.3026 25.5996 30C25.5996 31.6974 26.2739 33.3253 27.4741 34.5255C28.6744 35.7257 30.3022 36.4 31.9996 36.4C33.697 36.4 35.3249 35.7257 36.5251 34.5255C37.7253 33.3253 38.3996 31.6974 38.3996 30C38.3996 28.3026 37.7253 26.6748 36.5251 25.4745Z" fill="#F2C41E"/>
<path fill-rule="evenodd" clip-rule="evenodd" d="M31.9996 23.6C33.697 23.6 35.3249 24.2743 36.5251 25.4745C37.7253 26.6748 38.3996 28.3026 38.3996 30C38.3996 31.6974 37.7253 33.3253 36.5251 34.5255C35.3249 35.7257 33.697 36.4 31.9996 36.4C30.3022 36.4 28.6744 35.7257 27.4741 34.5255C26.2739 33.3253 25.5996 31.6974 25.5996 30C25.5996 28.3026 26.2739 26.6748 27.4741 25.4745C28.6744 24.2743 30.3022 23.6 31.9996 23.6ZM34.9652 30.5656L32.5652 32.9656C32.4152 33.1156 32.2117 33.1999 31.9996 33.1999C31.7875 33.1999 31.584 33.1156 31.434 32.9656L29.034 30.5656C28.8883 30.4147 28.8076 30.2127 28.8095 30.0029C28.8113 29.7931 28.8954 29.5925 29.0438 29.4442C29.1921 29.2958 29.3927 29.2117 29.6025 29.2099C29.8122 29.2081 30.0143 29.2887 30.1652 29.4344L31.1996 30.4688V27.6C31.1996 27.3879 31.2839 27.1844 31.4339 27.0343C31.584 26.8843 31.7874 26.8 31.9996 26.8C32.2118 26.8 32.4153 26.8843 32.5653 27.0343C32.7153 27.1844 32.7996 27.3879 32.7996 27.6V30.4688L33.834 29.4344C33.9849 29.2887 34.187 29.2081 34.3967 29.2099C34.6065 29.2117 34.8071 29.2958 34.9555 29.4442C35.1038 29.5925 35.1879 29.7931 35.1897 30.0029C35.1916 30.2127 35.1109 30.4147 34.9652 30.5656Z" fill="#FEFBEF"/>
<defs>
<filter id="filter0_d_3144_210569" x="5" y="7" width="37.9004" height="42" filterUnits="userSpaceOnUse" color-interpolation-filters="sRGB">
<feFlood flood-opacity="0" result="BackgroundImageFix"/>
<feColorMatrix in="SourceAlpha" type="matrix" values="0 0 0 0 0 0 0 0 0 0 0 0 0 0 0 0 0 0 127 0" result="hardAlpha"/>
<feOffset dy="4"/>
<feGaussianBlur stdDeviation="3.5"/>
<feComposite in2="hardAlpha" operator="out"/>
<feColorMatrix type="matrix" values="0 0 0 0 1 0 0 0 0 0.813141 0 0 0 0 0.116667 0 0 0 0.5 0"/>
<feBlend mode="normal" in2="BackgroundImageFix" result="effect1_dropShadow_3144_210569"/>
<feBlend mode="normal" in="SourceGraphic" in2="effect1_dropShadow_3144_210569" result="shape"/>
</filter>
</defs>
</svg>
