<svg width="48" height="48" viewBox="0 0 48 48" fill="none" xmlns="http://www.w3.org/2000/svg">
<circle cx="24" cy="24" r="22.5" fill="#F9F3DD" stroke="#F3E9C4" stroke-width="3"/>
<g filter="url(#filter0_d_3471_37763)">
<path d="M26.6487 33.2512V36.3911L23.911 38L21.2512 36.3911V33.2512L23.911 34.8601L26.6487 33.2512ZM12 22.3911L14.6599 24V29.3846L19.24 32.1223V35.2623L12 30.9935V22.3911ZM35.822 22.3911V31.0065L28.5042 35.2753V32.1353L33.0843 29.3976V24L35.822 22.3911ZM28.4912 18.1223L31.2289 19.7312V22.8712L26.6487 25.6089V31.0843L23.9889 32.6932L21.329 31.0843V25.6089L16.5802 22.8712V19.7312L19.3179 18.1223L23.898 20.8601L28.4912 18.1223ZM16.5931 25.1288L19.253 26.7377V29.8777L16.5931 28.2688V25.1288ZM31.2289 25.1288V28.2688L28.569 29.8777V26.7377L31.2289 25.1288ZM14.6599 15.3846L17.3976 16.9935L14.6599 18.6024V21.7424L12 20.1335V16.9935L14.6599 15.3846ZM33.1622 15.3846L35.8999 16.9935V20.1335L33.1622 21.7424V18.6024L30.5023 16.9935L33.1622 15.3846ZM23.911 15.3846L26.6487 16.9935L23.911 18.6154L21.2512 17.0065L23.911 15.3846ZM23.911 10L31.2289 14.2688L28.569 15.8777L23.9889 13.1399L19.3179 15.8777L16.671 14.2688L23.911 10Z" fill="#FAC603"/>
</g>
<path d="M15.9996 37.4016C17.9622 37.4016 19.8444 36.6219 21.2322 35.2342C22.62 33.8464 23.3996 31.9642 23.3996 30.0016C23.3996 28.039 22.62 26.1567 21.2322 24.769C19.8444 23.3812 17.9622 22.6016 15.9996 22.6016C14.037 22.6016 12.1548 23.3812 10.767 24.769C9.37925 26.1567 8.59961 28.039 8.59961 30.0016C8.59961 31.9642 9.37925 33.8464 10.767 35.2342C12.1548 36.6219 14.037 37.4016 15.9996 37.4016Z" fill="#F2C41E" stroke="#F2C41E" stroke-width="2"/>
<path fill-rule="evenodd" clip-rule="evenodd" d="M15.9996 36.4016C17.697 36.4016 19.3249 35.7273 20.5251 34.527C21.7253 33.3268 22.3996 31.6989 22.3996 30.0016C22.3996 28.3042 21.7253 26.6763 20.5251 25.4761C19.3249 24.2758 17.697 23.6016 15.9996 23.6016C14.3022 23.6016 12.6744 24.2758 11.4741 25.4761C10.2739 26.6763 9.59961 28.3042 9.59961 30.0016C9.59961 31.6989 10.2739 33.3268 11.4741 34.527C12.6744 35.7273 14.3022 36.4016 15.9996 36.4016ZM18.9652 29.436L16.5652 27.036C16.4152 26.886 16.2117 26.8017 15.9996 26.8017C15.7875 26.8017 15.584 26.886 15.434 27.036L13.034 29.436C12.8883 29.5868 12.8076 29.7889 12.8095 29.9987C12.8113 30.2084 12.8954 30.4091 13.0438 30.5574C13.1921 30.7057 13.3927 30.7899 13.6025 30.7917C13.8122 30.7935 14.0143 30.7129 14.1652 30.5672L15.1996 29.5328V32.4016C15.1996 32.6137 15.2839 32.8172 15.4339 32.9672C15.584 33.1173 15.7874 33.2016 15.9996 33.2016C16.2118 33.2016 16.4153 33.1173 16.5653 32.9672C16.7153 32.8172 16.7996 32.6137 16.7996 32.4016V29.5328L17.834 30.5672C17.9849 30.7129 18.187 30.7935 18.3967 30.7917C18.6065 30.7899 18.8071 30.7057 18.9555 30.5574C19.1038 30.4091 19.1879 30.2084 19.1897 29.9987C19.1916 29.7889 19.1109 29.5868 18.9652 29.436Z" fill="#FEFBEF"/>
<defs>
<filter id="filter0_d_3471_37763" x="5" y="7" width="37.8994" height="42" filterUnits="userSpaceOnUse" color-interpolation-filters="sRGB">
<feFlood flood-opacity="0" result="BackgroundImageFix"/>
<feColorMatrix in="SourceAlpha" type="matrix" values="0 0 0 0 0 0 0 0 0 0 0 0 0 0 0 0 0 0 127 0" result="hardAlpha"/>
<feOffset dy="4"/>
<feGaussianBlur stdDeviation="3.5"/>
<feComposite in2="hardAlpha" operator="out"/>
<feColorMatrix type="matrix" values="0 0 0 0 1 0 0 0 0 0.813141 0 0 0 0 0.116667 0 0 0 0.5 0"/>
<feBlend mode="normal" in2="BackgroundImageFix" result="effect1_dropShadow_3471_37763"/>
<feBlend mode="normal" in="SourceGraphic" in2="effect1_dropShadow_3471_37763" result="shape"/>
</filter>
</defs>
</svg>
