<svg width="48" height="48" viewBox="0 0 48 48" fill="none" xmlns="http://www.w3.org/2000/svg">
<path d="M48 24C48 37.2548 37.2548 48 24 48C10.7452 48 0 37.2548 0 24C0 10.7452 10.7452 0 24 0C37.2548 0 48 10.7452 48 24Z" fill="#F4C61E"/>
<path fill-rule="evenodd" clip-rule="evenodd" d="M24 45C35.598 45 45 35.598 45 24C45 12.402 35.598 3 24 3C12.402 3 3 12.402 3 24C3 35.598 12.402 45 24 45ZM24 48C37.2548 48 48 37.2548 48 24C48 10.7452 37.2548 0 24 0C10.7452 0 0 10.7452 0 24C0 37.2548 10.7452 48 24 48Z" fill="#DDB00A"/>
<g filter="url(#filter0_d_3144_210413)">
<path d="M26.6487 33.2512V36.3911L23.911 38L21.2512 36.3911V33.2512L23.911 34.8601L26.6487 33.2512ZM12 22.3911L14.6599 24V29.3846L19.24 32.1223V35.2623L12 30.9935V22.3911ZM35.822 22.3911V31.0065L28.5042 35.2753V32.1353L33.0843 29.3976V24L35.822 22.3911ZM28.4912 18.1223L31.2289 19.7312V22.8712L26.6487 25.6089V31.0843L23.9889 32.6932L21.329 31.0843V25.6089L16.5802 22.8712V19.7312L19.3179 18.1223L23.898 20.8601L28.4912 18.1223ZM16.5931 25.1288L19.253 26.7377V29.8777L16.5931 28.2688V25.1288ZM31.2289 25.1288V28.2688L28.569 29.8777V26.7377L31.2289 25.1288ZM14.6599 15.3846L17.3976 16.9935L14.6599 18.6024V21.7424L12 20.1335V16.9935L14.6599 15.3846ZM33.1622 15.3846L35.8999 16.9935V20.1335L33.1622 21.7424V18.6024L30.5023 16.9935L33.1622 15.3846ZM23.911 15.3846L26.6487 16.9935L23.911 18.6154L21.2512 17.0065L23.911 15.3846ZM23.911 10L31.2289 14.2688L28.569 15.8777L23.9889 13.1399L19.3179 15.8777L16.671 14.2688L23.911 10Z" fill="#FEFBEF"/>
</g>
<path fill-rule="evenodd" clip-rule="evenodd" d="M15.9996 36.4C17.697 36.4 19.3249 35.7257 20.5251 34.5255C21.7253 33.3252 22.3996 31.6974 22.3996 30C22.3996 28.3026 21.7253 26.6747 20.5251 25.4745C19.3249 24.2743 17.697 23.6 15.9996 23.6C14.3022 23.6 12.6744 24.2743 11.4741 25.4745C10.2739 26.6747 9.59961 28.3026 9.59961 30C9.59961 31.6974 10.2739 33.3252 11.4741 34.5255C12.6744 35.7257 14.3022 36.4 15.9996 36.4ZM18.9652 29.4344L16.5652 27.0344C16.4152 26.8844 16.2117 26.8001 15.9996 26.8001C15.7875 26.8001 15.584 26.8844 15.434 27.0344L13.034 29.4344C12.8883 29.5853 12.8076 29.7873 12.8095 29.9971C12.8113 30.2069 12.8954 30.4075 13.0438 30.5558C13.1921 30.7042 13.3927 30.7883 13.6025 30.7901C13.8122 30.7919 14.0143 30.7113 14.1652 30.5656L15.1996 29.5312V32.4C15.1996 32.6121 15.2839 32.8156 15.4339 32.9657C15.584 33.1157 15.7874 33.2 15.9996 33.2C16.2118 33.2 16.4153 33.1157 16.5653 32.9657C16.7153 32.8156 16.7996 32.6121 16.7996 32.4V29.5312L17.834 30.5656C17.9849 30.7113 18.187 30.7919 18.3967 30.7901C18.6065 30.7883 18.8071 30.7042 18.9555 30.5558C19.1038 30.4075 19.1879 30.2069 19.1897 29.9971C19.1916 29.7873 19.1109 29.5853 18.9652 29.4344Z" fill="#F2C41E"/>
<path d="M18.9652 29.4344L16.5652 27.0344C16.4152 26.8844 16.2117 26.8001 15.9996 26.8001C15.7875 26.8001 15.584 26.8844 15.434 27.0344L13.034 29.4344C12.8883 29.5853 12.8076 29.7873 12.8095 29.9971C12.8113 30.2069 12.8954 30.4075 13.0438 30.5558C13.1921 30.7042 13.3927 30.7883 13.6025 30.7901C13.8122 30.7919 14.0143 30.7113 14.1652 30.5656L15.1996 29.5312V32.4C15.1996 32.6121 15.2839 32.8156 15.4339 32.9657C15.584 33.1157 15.7874 33.2 15.9996 33.2C16.2118 33.2 16.4153 33.1157 16.5653 32.9657C16.7153 32.8156 16.7996 32.6121 16.7996 32.4V29.5312L17.834 30.5656C17.9849 30.7113 18.187 30.7919 18.3967 30.7901C18.6065 30.7883 18.8071 30.7042 18.9555 30.5558C19.1038 30.4075 19.1879 30.2069 19.1897 29.9971C19.1916 29.7873 19.1109 29.5853 18.9652 29.4344Z" fill="#F2C41E"/>
<path fill-rule="evenodd" clip-rule="evenodd" d="M21.9393 35.9397C20.364 37.515 18.2274 38.4 15.9996 38.4C13.7718 38.4 11.6352 37.515 10.0599 35.9397C8.48461 34.3644 7.59961 32.2278 7.59961 30C7.59961 27.7722 8.48461 25.6356 10.0599 24.0603C11.6352 22.485 13.7718 21.6 15.9996 21.6C18.2274 21.6 20.364 22.485 21.9393 24.0603C23.5146 25.6356 24.3996 27.7722 24.3996 30C24.3996 32.2278 23.5146 34.3644 21.9393 35.9397ZM20.5251 34.5255C19.3249 35.7257 17.697 36.4 15.9996 36.4C14.3022 36.4 12.6744 35.7257 11.4741 34.5255C10.2739 33.3252 9.59961 31.6974 9.59961 30C9.59961 28.3026 10.2739 26.6747 11.4741 25.4745C12.6744 24.2743 14.3022 23.6 15.9996 23.6C17.697 23.6 19.3249 24.2743 20.5251 25.4745C21.7253 26.6747 22.3996 28.3026 22.3996 30C22.3996 31.6974 21.7253 33.3252 20.5251 34.5255Z" fill="#F2C41E"/>
<path fill-rule="evenodd" clip-rule="evenodd" d="M15.9996 36.4C17.697 36.4 19.3249 35.7257 20.5251 34.5255C21.7253 33.3252 22.3996 31.6974 22.3996 30C22.3996 28.3026 21.7253 26.6747 20.5251 25.4745C19.3249 24.2743 17.697 23.6 15.9996 23.6C14.3022 23.6 12.6744 24.2743 11.4741 25.4745C10.2739 26.6747 9.59961 28.3026 9.59961 30C9.59961 31.6974 10.2739 33.3252 11.4741 34.5255C12.6744 35.7257 14.3022 36.4 15.9996 36.4V36.4ZM18.9652 29.4344L16.5652 27.0344C16.4152 26.8844 16.2117 26.8001 15.9996 26.8001C15.7875 26.8001 15.584 26.8844 15.434 27.0344L13.034 29.4344C12.8883 29.5853 12.8076 29.7873 12.8095 29.9971C12.8113 30.2069 12.8954 30.4075 13.0438 30.5558C13.1921 30.7042 13.3927 30.7883 13.6025 30.7901C13.8122 30.7919 14.0143 30.7113 14.1652 30.5656L15.1996 29.5312V32.4C15.1996 32.6121 15.2839 32.8156 15.4339 32.9657C15.584 33.1157 15.7874 33.2 15.9996 33.2C16.2118 33.2 16.4153 33.1157 16.5653 32.9657C16.7153 32.8156 16.7996 32.6121 16.7996 32.4V29.5312L17.834 30.5656C17.9849 30.7113 18.187 30.7919 18.3967 30.7901C18.6065 30.7883 18.8071 30.7042 18.9555 30.5558C19.1038 30.4075 19.1879 30.2069 19.1897 29.9971C19.1916 29.7873 19.1109 29.5853 18.9652 29.4344V29.4344Z" fill="#FEFBEF"/>
<defs>
<filter id="filter0_d_3144_210413" x="0" y="2" width="47.9004" height="52" filterUnits="userSpaceOnUse" color-interpolation-filters="sRGB">
<feFlood flood-opacity="0" result="BackgroundImageFix"/>
<feColorMatrix in="SourceAlpha" type="matrix" values="0 0 0 0 0 0 0 0 0 0 0 0 0 0 0 0 0 0 127 0" result="hardAlpha"/>
<feOffset dy="4"/>
<feGaussianBlur stdDeviation="6"/>
<feComposite in2="hardAlpha" operator="out"/>
<feColorMatrix type="matrix" values="0 0 0 0 0.731667 0 0 0 0 0.587736 0 0 0 0 0.0683333 0 0 0 1 0"/>
<feBlend mode="normal" in2="BackgroundImageFix" result="effect1_dropShadow_3144_210413"/>
<feBlend mode="normal" in="SourceGraphic" in2="effect1_dropShadow_3144_210413" result="shape"/>
</filter>
</defs>
</svg>
