<svg width="48" height="48" viewBox="0 0 48 48" fill="none" xmlns="http://www.w3.org/2000/svg">
<g clip-path="url(#clip0_3660_373095)">
<path d="M48 24C48 37.2548 37.2548 48 24 48C10.7452 48 0 37.2548 0 24C0 10.7452 10.7452 0 24 0C37.2548 0 48 10.7452 48 24Z" fill="#E9983D"/>
<path fill-rule="evenodd" clip-rule="evenodd" d="M24 45C35.598 45 45 35.598 45 24C45 12.402 35.598 3 24 3C12.402 3 3 12.402 3 24C3 35.598 12.402 45 24 45ZM24 48C37.2548 48 48 37.2548 48 24C48 10.7452 37.2548 0 24 0C10.7452 0 0 10.7452 0 24C0 37.2548 10.7452 48 24 48Z" fill="#DC821D"/>
<g filter="url(#filter0_d_3660_373095)">
<path d="M34.3441 21.854C34.7678 19.0171 32.6078 17.492 29.6543 16.4746L30.6124 12.6317L28.2725 12.0487L27.3398 15.7904C26.7255 15.6371 26.0939 15.4926 25.4663 15.3493L26.4057 11.583L24.0678 11L23.109 14.8416C22.6 14.7257 22.1003 14.6111 21.6153 14.4905L21.618 14.4785L18.392 13.673L17.7697 16.1715C17.7697 16.1715 19.5053 16.5692 19.4686 16.5939C20.416 16.8304 20.5879 17.4573 20.5586 17.9544L19.4673 22.3323C19.5326 22.349 19.6172 22.373 19.7105 22.4103L19.464 22.349L17.9336 28.4819C17.8176 28.7697 17.5238 29.2014 16.8616 29.0375C16.8849 29.0715 15.1613 28.6131 15.1613 28.6131L14 31.2915L17.0448 32.0503C17.6111 32.1922 18.1661 32.3408 18.7118 32.4807L17.7437 36.3683L20.0802 36.9513L21.0397 33.1057C21.6773 33.2789 22.2969 33.4388 22.9032 33.5894L21.9478 37.417L24.287 38L25.2551 34.1204C29.2439 34.8753 32.2441 34.5708 33.5053 30.9637C34.5227 28.0588 33.4553 26.3832 31.3566 25.2898C32.885 24.9361 34.0363 23.9307 34.3434 21.854H34.3441ZM28.9987 29.3487C28.2752 32.2535 23.3849 30.6838 21.7985 30.2894L23.0831 25.1399C24.6687 25.5357 29.7529 26.3192 28.9994 29.3487H28.9987ZM29.7216 21.812C29.062 24.4544 24.9912 23.1119 23.67 22.7827L24.8346 18.1123C26.1558 18.4414 30.4092 19.0557 29.7216 21.812Z" fill="#FEF8F1"/>
</g>
<path fill-rule="evenodd" clip-rule="evenodd" d="M31.9996 23.5999C33.697 23.5999 35.3249 24.2742 36.5251 25.4744C37.7253 26.6747 38.3996 28.3025 38.3996 29.9999C38.3996 31.6973 37.7253 33.3252 36.5251 34.5254C35.3249 35.7256 33.697 36.3999 31.9996 36.3999C30.3022 36.3999 28.6744 35.7256 27.4741 34.5254C26.2739 33.3252 25.5996 31.6973 25.5996 29.9999C25.5996 28.3025 26.2739 26.6747 27.4741 25.4744C28.6744 24.2742 30.3022 23.5999 31.9996 23.5999ZM34.9652 30.5655L32.5652 32.9655C32.4152 33.1155 32.2117 33.1997 31.9996 33.1997C31.7875 33.1997 31.584 33.1155 31.434 32.9655L29.034 30.5655C28.8883 30.4146 28.8076 30.2125 28.8095 30.0028C28.8113 29.793 28.8954 29.5924 29.0438 29.444C29.1921 29.2957 29.3927 29.2116 29.6025 29.2098C29.8122 29.2079 30.0143 29.2886 30.1652 29.4343L31.1996 30.4687V27.5999C31.1996 27.3877 31.2839 27.1842 31.4339 27.0342C31.584 26.8842 31.7874 26.7999 31.9996 26.7999C32.2118 26.7999 32.4153 26.8842 32.5653 27.0342C32.7153 27.1842 32.7996 27.3877 32.7996 27.5999V30.4687L33.834 29.4343C33.9849 29.2886 34.187 29.2079 34.3967 29.2098C34.6065 29.2116 34.8071 29.2957 34.9555 29.444C35.1038 29.5924 35.1879 29.793 35.1897 30.0028C35.1916 30.2125 35.1109 30.4146 34.9652 30.5655Z" fill="#E8983D"/>
<path d="M34.9652 30.5655L32.5652 32.9655C32.4152 33.1155 32.2117 33.1997 31.9996 33.1997C31.7875 33.1997 31.584 33.1155 31.434 32.9655L29.034 30.5655C28.8883 30.4146 28.8076 30.2125 28.8095 30.0028C28.8113 29.793 28.8954 29.5924 29.0438 29.444C29.1921 29.2957 29.3927 29.2116 29.6025 29.2098C29.8122 29.2079 30.0143 29.2886 30.1652 29.4343L31.1996 30.4687V27.5999C31.1996 27.3877 31.2839 27.1842 31.4339 27.0342C31.584 26.8842 31.7874 26.7999 31.9996 26.7999C32.2118 26.7999 32.4153 26.8842 32.5653 27.0342C32.7153 27.1842 32.7996 27.3877 32.7996 27.5999V30.4687L33.834 29.4343C33.9849 29.2886 34.187 29.2079 34.3967 29.2098C34.6065 29.2116 34.8071 29.2957 34.9555 29.444C35.1038 29.5924 35.1879 29.793 35.1897 30.0028C35.1916 30.2125 35.1109 30.4146 34.9652 30.5655Z" fill="#E8983D"/>
<path fill-rule="evenodd" clip-rule="evenodd" d="M37.9393 24.0602C36.364 22.4849 34.2274 21.5999 31.9996 21.5999C29.7718 21.5999 27.6352 22.4849 26.0599 24.0602C24.4846 25.6355 23.5996 27.7721 23.5996 29.9999C23.5996 32.2277 24.4846 34.3643 26.0599 35.9396C27.6352 37.5149 29.7718 38.3999 31.9996 38.3999C34.2274 38.3999 36.364 37.5149 37.9393 35.9396C39.5146 34.3643 40.3996 32.2277 40.3996 29.9999C40.3996 27.7721 39.5146 25.6355 37.9393 24.0602ZM36.5251 25.4744C35.3249 24.2742 33.697 23.5999 31.9996 23.5999C30.3022 23.5999 28.6744 24.2742 27.4741 25.4744C26.2739 26.6747 25.5996 28.3025 25.5996 29.9999C25.5996 31.6973 26.2739 33.3252 27.4741 34.5254C28.6744 35.7256 30.3022 36.3999 31.9996 36.3999C33.697 36.3999 35.3249 35.7256 36.5251 34.5254C37.7253 33.3252 38.3996 31.6973 38.3996 29.9999C38.3996 28.3025 37.7253 26.6747 36.5251 25.4744Z" fill="#E9983E"/>
<path fill-rule="evenodd" clip-rule="evenodd" d="M31.9996 23.5999C33.697 23.5999 35.3249 24.2742 36.5251 25.4744C37.7253 26.6747 38.3996 28.3025 38.3996 29.9999C38.3996 31.6973 37.7253 33.3252 36.5251 34.5254C35.3249 35.7256 33.697 36.3999 31.9996 36.3999C30.3022 36.3999 28.6744 35.7256 27.4741 34.5254C26.2739 33.3252 25.5996 31.6973 25.5996 29.9999C25.5996 28.3025 26.2739 26.6747 27.4741 25.4744C28.6744 24.2742 30.3022 23.5999 31.9996 23.5999ZM34.9652 30.5655L32.5652 32.9655C32.4152 33.1155 32.2117 33.1997 31.9996 33.1997C31.7875 33.1997 31.584 33.1155 31.434 32.9655L29.034 30.5655C28.8883 30.4146 28.8076 30.2125 28.8095 30.0028C28.8113 29.793 28.8954 29.5924 29.0438 29.444C29.1921 29.2957 29.3927 29.2116 29.6025 29.2098C29.8122 29.2079 30.0143 29.2886 30.1652 29.4343L31.1996 30.4687V27.5999C31.1996 27.3877 31.2839 27.1842 31.4339 27.0342C31.584 26.8842 31.7874 26.7999 31.9996 26.7999C32.2118 26.7999 32.4153 26.8842 32.5653 27.0342C32.7153 27.1842 32.7996 27.3877 32.7996 27.5999V30.4687L33.834 29.4343C33.9849 29.2886 34.187 29.2079 34.3967 29.2098C34.6065 29.2116 34.8071 29.2957 34.9555 29.444C35.1038 29.5924 35.1879 29.793 35.1897 30.0028C35.1916 30.2125 35.1109 30.4146 34.9652 30.5655Z" fill="#FEF8F1"/>
</g>
<defs>
<filter id="filter0_d_3660_373095" x="2" y="3" width="44.3965" height="51" filterUnits="userSpaceOnUse" color-interpolation-filters="sRGB">
<feFlood flood-opacity="0" result="BackgroundImageFix"/>
<feColorMatrix in="SourceAlpha" type="matrix" values="0 0 0 0 0 0 0 0 0 0 0 0 0 0 0 0 0 0 127 0" result="hardAlpha"/>
<feOffset dy="4"/>
<feGaussianBlur stdDeviation="6"/>
<feComposite in2="hardAlpha" operator="out"/>
<feColorMatrix type="matrix" values="0 0 0 0 0.602778 0 0 0 0 0.348851 0 0 0 0 0.0638888 0 0 0 1 0"/>
<feBlend mode="normal" in2="BackgroundImageFix" result="effect1_dropShadow_3660_373095"/>
<feBlend mode="normal" in="SourceGraphic" in2="effect1_dropShadow_3660_373095" result="shape"/>
</filter>
<clipPath id="clip0_3660_373095">
<rect width="48" height="48" fill="white"/>
</clipPath>
</defs>
</svg>
