<svg width="48" height="48" viewBox="0 0 48 48" fill="none" xmlns="http://www.w3.org/2000/svg">
<g clip-path="url(#clip0_3660_373024)">
<path d="M48 24C48 37.2548 37.2548 48 24 48C10.7452 48 0 37.2548 0 24C0 10.7452 10.7452 0 24 0C37.2548 0 48 10.7452 48 24Z" fill="#E9983D"/>
<path fill-rule="evenodd" clip-rule="evenodd" d="M24 45C35.598 45 45 35.598 45 24C45 12.402 35.598 3 24 3C12.402 3 3 12.402 3 24C3 35.598 12.402 45 24 45ZM24 48C37.2548 48 48 37.2548 48 24C48 10.7452 37.2548 0 24 0C10.7452 0 0 10.7452 0 24C0 37.2548 10.7452 48 24 48Z" fill="#DC821D"/>
<g filter="url(#filter0_d_3660_373024)">
<path d="M34.3441 21.854C34.7678 19.0171 32.6078 17.492 29.6543 16.4746L30.6124 12.6317L28.2725 12.0487L27.3398 15.7904C26.7255 15.6371 26.0939 15.4926 25.4663 15.3493L26.4057 11.583L24.0678 11L23.109 14.8416C22.6 14.7257 22.1003 14.6111 21.6153 14.4905L21.618 14.4785L18.392 13.673L17.7697 16.1715C17.7697 16.1715 19.5053 16.5692 19.4686 16.5939C20.416 16.8304 20.5879 17.4573 20.5586 17.9544L19.4673 22.3323C19.5326 22.349 19.6172 22.373 19.7105 22.4103L19.464 22.349L17.9336 28.4819C17.8176 28.7697 17.5238 29.2014 16.8616 29.0375C16.8849 29.0715 15.1613 28.6131 15.1613 28.6131L14 31.2915L17.0448 32.0503C17.6111 32.1922 18.1661 32.3408 18.7118 32.4807L17.7437 36.3683L20.0802 36.9513L21.0397 33.1057C21.6773 33.2789 22.2969 33.4388 22.9032 33.5894L21.9478 37.417L24.287 38L25.2551 34.1204C29.2439 34.8753 32.2441 34.5708 33.5053 30.9637C34.5227 28.0588 33.4553 26.3832 31.3566 25.2898C32.885 24.9361 34.0363 23.9307 34.3434 21.854H34.3441ZM28.9987 29.3487C28.2752 32.2535 23.3849 30.6838 21.7985 30.2894L23.0831 25.1399C24.6687 25.5357 29.7529 26.3192 28.9994 29.3487H28.9987ZM29.7216 21.812C29.062 24.4544 24.9912 23.1119 23.67 22.7827L24.8346 18.1123C26.1558 18.4414 30.4092 19.0557 29.7216 21.812Z" fill="#FEF8F1"/>
</g>
<path fill-rule="evenodd" clip-rule="evenodd" d="M15.9996 36.4001C17.697 36.4001 19.3249 35.7258 20.5251 34.5256C21.7253 33.3253 22.3996 31.6975 22.3996 30.0001C22.3996 28.3027 21.7253 26.6748 20.5251 25.4746C19.3249 24.2744 17.697 23.6001 15.9996 23.6001C14.3022 23.6001 12.6744 24.2744 11.4741 25.4746C10.2739 26.6748 9.59961 28.3027 9.59961 30.0001C9.59961 31.6975 10.2739 33.3253 11.4741 34.5256C12.6744 35.7258 14.3022 36.4001 15.9996 36.4001ZM18.9652 29.4345L16.5652 27.0345C16.4152 26.8845 16.2117 26.8003 15.9996 26.8003C15.7875 26.8003 15.584 26.8845 15.434 27.0345L13.034 29.4345C12.8883 29.5854 12.8076 29.7875 12.8095 29.9972C12.8113 30.207 12.8954 30.4076 13.0438 30.556C13.1921 30.7043 13.3927 30.7884 13.6025 30.7902C13.8122 30.7921 14.0143 30.7114 14.1652 30.5657L15.1996 29.5313V32.4001C15.1996 32.6123 15.2839 32.8158 15.4339 32.9658C15.584 33.1158 15.7874 33.2001 15.9996 33.2001C16.2118 33.2001 16.4153 33.1158 16.5653 32.9658C16.7153 32.8158 16.7996 32.6123 16.7996 32.4001V29.5313L17.834 30.5657C17.9849 30.7114 18.187 30.7921 18.3967 30.7902C18.6065 30.7884 18.8071 30.7043 18.9555 30.556C19.1038 30.4076 19.1879 30.207 19.1897 29.9972C19.1916 29.7875 19.1109 29.5854 18.9652 29.4345Z" fill="#E8983D"/>
<path d="M18.9652 29.4345L16.5652 27.0345C16.4152 26.8845 16.2117 26.8003 15.9996 26.8003C15.7875 26.8003 15.584 26.8845 15.434 27.0345L13.034 29.4345C12.8883 29.5854 12.8076 29.7875 12.8095 29.9972C12.8113 30.207 12.8954 30.4076 13.0438 30.556C13.1921 30.7043 13.3927 30.7884 13.6025 30.7902C13.8122 30.7921 14.0143 30.7114 14.1652 30.5657L15.1996 29.5313V32.4001C15.1996 32.6123 15.2839 32.8158 15.4339 32.9658C15.584 33.1158 15.7874 33.2001 15.9996 33.2001C16.2118 33.2001 16.4153 33.1158 16.5653 32.9658C16.7153 32.8158 16.7996 32.6123 16.7996 32.4001V29.5313L17.834 30.5657C17.9849 30.7114 18.187 30.7921 18.3967 30.7902C18.6065 30.7884 18.8071 30.7043 18.9555 30.556C19.1038 30.4076 19.1879 30.207 19.1897 29.9972C19.1916 29.7875 19.1109 29.5854 18.9652 29.4345Z" fill="#E8983D"/>
<path fill-rule="evenodd" clip-rule="evenodd" d="M21.9393 35.9398C20.364 37.5151 18.2274 38.4001 15.9996 38.4001C13.7718 38.4001 11.6352 37.5151 10.0599 35.9398C8.48461 34.3645 7.59961 32.2279 7.59961 30.0001C7.59961 27.7723 8.48461 25.6357 10.0599 24.0604C11.6352 22.4851 13.7718 21.6001 15.9996 21.6001C18.2274 21.6001 20.364 22.4851 21.9393 24.0604C23.5146 25.6357 24.3996 27.7723 24.3996 30.0001C24.3996 32.2279 23.5146 34.3645 21.9393 35.9398ZM20.5251 34.5256C19.3249 35.7258 17.697 36.4001 15.9996 36.4001C14.3022 36.4001 12.6744 35.7258 11.4741 34.5256C10.2739 33.3253 9.59961 31.6975 9.59961 30.0001C9.59961 28.3027 10.2739 26.6748 11.4741 25.4746C12.6744 24.2744 14.3022 23.6001 15.9996 23.6001C17.697 23.6001 19.3249 24.2744 20.5251 25.4746C21.7253 26.6748 22.3996 28.3027 22.3996 30.0001C22.3996 31.6975 21.7253 33.3253 20.5251 34.5256Z" fill="#E9983E"/>
<path fill-rule="evenodd" clip-rule="evenodd" d="M15.9996 36.4001C17.697 36.4001 19.3249 35.7258 20.5251 34.5256C21.7253 33.3253 22.3996 31.6975 22.3996 30.0001C22.3996 28.3027 21.7253 26.6748 20.5251 25.4746C19.3249 24.2744 17.697 23.6001 15.9996 23.6001C14.3022 23.6001 12.6744 24.2744 11.4741 25.4746C10.2739 26.6748 9.59961 28.3027 9.59961 30.0001C9.59961 31.6975 10.2739 33.3253 11.4741 34.5256C12.6744 35.7258 14.3022 36.4001 15.9996 36.4001ZM18.9652 29.4345L16.5652 27.0345C16.4152 26.8845 16.2117 26.8003 15.9996 26.8003C15.7875 26.8003 15.584 26.8845 15.434 27.0345L13.034 29.4345C12.8883 29.5854 12.8076 29.7875 12.8095 29.9972C12.8113 30.207 12.8954 30.4076 13.0438 30.556C13.1921 30.7043 13.3927 30.7884 13.6025 30.7902C13.8122 30.7921 14.0143 30.7114 14.1652 30.5657L15.1996 29.5313V32.4001C15.1996 32.6123 15.2839 32.8158 15.4339 32.9658C15.584 33.1158 15.7874 33.2001 15.9996 33.2001C16.2118 33.2001 16.4153 33.1158 16.5653 32.9658C16.7153 32.8158 16.7996 32.6123 16.7996 32.4001V29.5313L17.834 30.5657C17.9849 30.7114 18.187 30.7921 18.3967 30.7902C18.6065 30.7884 18.8071 30.7043 18.9555 30.556C19.1038 30.4076 19.1879 30.207 19.1897 29.9972C19.1916 29.7875 19.1109 29.5854 18.9652 29.4345Z" fill="#FEF8F1"/>
</g>
<defs>
<filter id="filter0_d_3660_373024" x="2" y="3" width="44.3965" height="51" filterUnits="userSpaceOnUse" color-interpolation-filters="sRGB">
<feFlood flood-opacity="0" result="BackgroundImageFix"/>
<feColorMatrix in="SourceAlpha" type="matrix" values="0 0 0 0 0 0 0 0 0 0 0 0 0 0 0 0 0 0 127 0" result="hardAlpha"/>
<feOffset dy="4"/>
<feGaussianBlur stdDeviation="6"/>
<feComposite in2="hardAlpha" operator="out"/>
<feColorMatrix type="matrix" values="0 0 0 0 0.602778 0 0 0 0 0.348851 0 0 0 0 0.0638888 0 0 0 1 0"/>
<feBlend mode="normal" in2="BackgroundImageFix" result="effect1_dropShadow_3660_373024"/>
<feBlend mode="normal" in="SourceGraphic" in2="effect1_dropShadow_3660_373024" result="shape"/>
</filter>
<clipPath id="clip0_3660_373024">
<rect width="48" height="48" fill="white"/>
</clipPath>
</defs>
</svg>
