<svg width="48" height="48" viewBox="0 0 48 48" fill="none" xmlns="http://www.w3.org/2000/svg">
<g clip-path="url(#clip0_3660_373086)">
<path d="M48 24C48 37.2548 37.2548 48 24 48C10.7452 48 0 37.2548 0 24C0 10.7452 10.7452 0 24 0C37.2548 0 48 10.7452 48 24Z" fill="#70D2DE"/>
<path fill-rule="evenodd" clip-rule="evenodd" d="M24 45C35.598 45 45 35.598 45 24C45 12.402 35.598 3 24 3C12.402 3 3 12.402 3 24C3 35.598 12.402 45 24 45ZM24 48C37.2548 48 48 37.2548 48 24C48 10.7452 37.2548 0 24 0C10.7452 0 0 10.7452 0 24C0 37.2548 10.7452 48 24 48Z" fill="#37C6D7"/>
<g filter="url(#filter0_d_3660_373086)">
<path fill-rule="evenodd" clip-rule="evenodd" d="M15.6313 15.0625C15.225 12.95 16.85 11 18.9625 11C20.8313 11 22.375 12.5437 22.375 14.4125V18.6375C22.8625 18.6375 23.35 18.5562 23.8375 18.5562C24.325 18.5562 24.7313 18.5562 25.2188 18.6375V14.4125C25.2188 12.5437 26.7625 11 28.6313 11C30.7438 11 32.3688 12.95 32.0438 15.0625L31.15 20.0188C34.3188 21.4 36.7563 23.8375 36.7563 26.8438V28.7125C36.7563 31.2312 35.1313 33.3438 32.775 34.725C30.4188 36.1875 27.3313 37 23.8375 37C20.3438 37 17.2563 36.1875 14.9 34.725C12.625 33.3438 11 31.2312 11 28.7125V26.8438C11 23.8375 13.3563 21.4 16.525 20.0188L15.6313 15.0625ZM29.9313 20.6687L30.9875 14.8187C31.2313 13.3562 30.175 11.975 28.6313 11.975C27.3313 11.975 26.275 13.0312 26.275 14.3312V19.6937C25.95 19.6125 25.5438 19.6125 25.2188 19.6125C24.7313 19.6125 24.325 19.5312 23.8375 19.5312C23.35 19.5312 22.8625 19.5313 22.375 19.6125C22.05 19.6125 21.6438 19.6937 21.3188 19.6937V14.4125C21.3188 13.1125 20.2625 12.0562 18.9625 12.0562C17.5 12.0562 16.3625 13.4375 16.6875 14.9L17.7438 20.75C14.3313 22.05 12.0563 24.325 12.0563 26.925V28.7937C12.0563 32.775 17.3375 36.025 23.8375 36.025C30.3375 36.025 35.6188 32.775 35.6188 28.7937V26.925C35.7 24.2437 33.425 21.9687 29.9313 20.6687Z" fill="#EBFCFE"/>
<path d="M20.5883 26.3562C20.5883 27.4125 20.0195 28.3062 19.2883 28.3062C18.557 28.3062 17.9883 27.4125 17.9883 26.3562C17.9883 25.3 18.557 24.4062 19.2883 24.4062C20.0195 24.4062 20.5883 25.3 20.5883 26.3562Z" fill="#EBFCFE"/>
<path d="M29.6059 26.3562C29.6059 27.4125 29.0371 28.3062 28.3059 28.3062C27.5746 28.3062 27.0059 27.4125 27.0059 26.3562C27.0059 25.3 27.5746 24.4062 28.3059 24.4062C29.0371 24.4062 29.6059 25.3 29.6059 26.3562Z" fill="#EBFCFE"/>
<path fill-rule="evenodd" clip-rule="evenodd" d="M18.9625 11.5C17.1651 11.5 15.7751 13.1629 16.1223 14.9681L16.1233 14.9738L17.0872 20.3191L16.7248 20.4771C13.6385 21.8224 11.5 24.1263 11.5 26.8438V28.7125C11.5 30.9968 12.9744 32.9709 15.1595 34.2976L15.1637 34.3002C16.427 35.0843 17.9179 35.6787 19.5838 36.0507C17.9492 35.6726 16.4743 35.0819 15.2477 34.3284C13.0331 32.968 11.5563 31.0239 11.5563 28.7937V26.925C11.5563 24.1175 13.9009 21.7885 17.179 20.4361L16.1972 14.9982C15.8095 13.2238 17.1871 11.5562 18.9625 11.5562C20.5386 11.5562 21.8188 12.8364 21.8188 14.4125V19.1532C21.8653 19.148 21.9142 19.1426 21.9644 19.1375H21.875V14.4125C21.875 12.8199 20.5551 11.5 18.9625 11.5ZM24.4655 19.0642C24.6318 19.0708 24.7933 19.0828 24.9622 19.1048C24.8355 19.0976 24.7088 19.0862 24.5734 19.0739L24.5655 19.0732C24.5327 19.0702 24.4994 19.0672 24.4655 19.0642ZM25.7188 19.1205C25.7374 19.1214 25.7562 19.1224 25.775 19.1234V14.3312C25.775 13.6982 25.9815 13.1129 26.3308 12.6391C25.948 13.1323 25.7188 13.7487 25.7188 14.4125V19.1205ZM31.1642 12.9793C31.4701 13.5457 31.5944 14.2187 31.4807 14.9009L31.4796 14.9076L30.4966 20.3516C33.847 21.7023 36.2022 24.0365 36.1188 26.9324V28.7937C36.1188 31.0239 34.6419 32.968 32.4273 34.3284C31.2007 35.0819 29.7259 35.6725 28.0912 36.0507C29.7571 35.6787 31.248 35.0843 32.5113 34.3002L32.5221 34.2935C34.7847 32.9671 36.2563 30.9943 36.2563 28.7125V26.8438C36.2563 24.1327 34.0453 21.8262 30.9502 20.4771L30.5878 20.3191L31.5505 14.9804C31.6603 14.2568 31.5045 13.5583 31.1642 12.9793ZM15.1397 15.154C14.6764 12.7353 16.5359 10.5 18.9625 10.5C21.1074 10.5 22.875 12.2676 22.875 14.4125V18.114C22.9368 18.1092 22.9999 18.104 23.0647 18.0986L23.0738 18.0978C23.3116 18.078 23.5729 18.0563 23.8375 18.0563H23.8518C24.1453 18.0562 24.4248 18.0562 24.7188 18.0765V14.4125C24.7188 12.2676 26.4864 10.5 28.6313 10.5C31.0621 10.5 32.9077 12.735 32.5379 15.1385L32.536 15.1513L31.7112 19.7239C34.7878 21.167 37.2563 23.6658 37.2563 26.8438V28.7125C37.2563 31.4662 35.4804 33.7169 33.0333 35.1531C30.5838 36.6719 27.4027 37.5 23.8375 37.5C20.2707 37.5 17.0883 36.6711 14.6384 35.1511C12.2745 33.7152 10.5 31.4649 10.5 28.7125V26.8438C10.5 23.6717 12.8853 21.1707 15.9638 19.724L15.1397 15.154ZM28.6313 12.475C27.6074 12.475 26.775 13.3074 26.775 14.3312V20.3341L26.1537 20.1788C25.9001 20.1154 25.5601 20.1125 25.2188 20.1125C24.9522 20.1125 24.7097 20.0905 24.4907 20.0705L24.4829 20.0698C24.2571 20.0493 24.0553 20.0312 23.8375 20.0312C23.3434 20.0312 22.8972 20.0324 22.4572 20.1057L22.4164 20.1125H22.375C22.2456 20.1125 22.092 20.129 21.9021 20.1501L21.8883 20.1516C21.7154 20.1708 21.5093 20.1937 21.3188 20.1937H20.8188V14.4125C20.8188 13.3886 19.9864 12.5563 18.9625 12.5563C17.8163 12.5563 16.9208 13.6448 17.1756 14.7915L17.1778 14.8013L18.3095 21.0695L17.9217 21.2172C14.5756 22.492 12.5563 24.6417 12.5563 26.925V28.7937C12.5563 30.5449 13.72 32.2164 15.7711 33.4763C17.8134 34.7309 20.665 35.525 23.8375 35.525C27.01 35.525 29.8616 34.7309 31.9039 33.4763C33.955 32.2164 35.1188 30.5449 35.1188 28.7937V26.9174L35.119 26.9099C35.1902 24.5583 33.1847 22.4128 29.7569 21.1374L29.3649 20.9915L30.4948 14.7333C30.6897 13.5528 29.841 12.475 28.6313 12.475ZM18.7819 25.2597C18.6089 25.523 18.4883 25.9121 18.4883 26.3562C18.4883 26.8004 18.6089 27.1895 18.7819 27.4528C18.957 27.7191 19.1446 27.8062 19.2883 27.8062C19.432 27.8062 19.6196 27.7191 19.7946 27.4528C19.9677 27.1895 20.0883 26.8004 20.0883 26.3562C20.0883 25.9121 19.9677 25.523 19.7946 25.2597C19.6196 24.9934 19.432 24.9062 19.2883 24.9062C19.1446 24.9062 18.957 24.9934 18.7819 25.2597ZM17.9462 24.7106C18.2383 24.266 18.7007 23.9062 19.2883 23.9062C19.8759 23.9062 20.3382 24.266 20.6304 24.7106C20.9245 25.1582 21.0883 25.7441 21.0883 26.3562C21.0883 26.9684 20.9245 27.5543 20.6304 28.0019C20.3382 28.4465 19.8759 28.8062 19.2883 28.8062C18.7007 28.8062 18.2383 28.4465 17.9462 28.0019C17.652 27.5543 17.4883 26.9684 17.4883 26.3562C17.4883 25.7441 17.652 25.1582 17.9462 24.7106ZM27.7995 25.2597C27.6265 25.523 27.5059 25.9121 27.5059 26.3562C27.5059 26.8004 27.6265 27.1895 27.7995 27.4528C27.9745 27.7191 28.1622 27.8062 28.3059 27.8062C28.4495 27.8062 28.6372 27.7191 28.8122 27.4528C28.9852 27.1895 29.1059 26.8004 29.1059 26.3562C29.1059 25.9121 28.9852 25.523 28.8122 25.2597C28.6372 24.9934 28.4495 24.9062 28.3059 24.9062C28.1622 24.9062 27.9745 24.9934 27.7995 25.2597ZM26.9638 24.7106C27.2559 24.266 27.7183 23.9062 28.3059 23.9062C28.8934 23.9062 29.3558 24.266 29.6479 24.7106C29.9421 25.1582 30.1059 25.7441 30.1059 26.3562C30.1059 26.9684 29.9421 27.5543 29.6479 28.0019C29.3558 28.4465 28.8934 28.8062 28.3059 28.8062C27.7183 28.8062 27.2559 28.4465 26.9638 28.0019C26.6696 27.5543 26.5059 26.9684 26.5059 26.3562C26.5059 25.7441 26.6696 25.1582 26.9638 24.7106Z" fill="#EBFCFE"/>
</g>
<path fill-rule="evenodd" clip-rule="evenodd" d="M31.9996 23.5999C33.697 23.5999 35.3249 24.2742 36.5251 25.4744C37.7253 26.6747 38.3996 28.3025 38.3996 29.9999C38.3996 31.6973 37.7253 33.3252 36.5251 34.5254C35.3249 35.7256 33.697 36.3999 31.9996 36.3999C30.3022 36.3999 28.6744 35.7256 27.4741 34.5254C26.2739 33.3252 25.5996 31.6973 25.5996 29.9999C25.5996 28.3025 26.2739 26.6747 27.4741 25.4744C28.6744 24.2742 30.3022 23.5999 31.9996 23.5999ZM34.9652 30.5655L32.5652 32.9655C32.4152 33.1155 32.2117 33.1997 31.9996 33.1997C31.7875 33.1997 31.584 33.1155 31.434 32.9655L29.034 30.5655C28.8883 30.4146 28.8076 30.2125 28.8095 30.0028C28.8113 29.793 28.8954 29.5924 29.0438 29.444C29.1921 29.2957 29.3927 29.2116 29.6025 29.2098C29.8122 29.2079 30.0143 29.2886 30.1652 29.4343L31.1996 30.4687V27.5999C31.1996 27.3877 31.2839 27.1842 31.4339 27.0342C31.584 26.8842 31.7874 26.7999 31.9996 26.7999C32.2118 26.7999 32.4153 26.8842 32.5653 27.0342C32.7153 27.1842 32.7996 27.3877 32.7996 27.5999V30.4687L33.834 29.4343C33.9849 29.2886 34.187 29.2079 34.3967 29.2098C34.6065 29.2116 34.8071 29.2957 34.9555 29.444C35.1038 29.5924 35.1879 29.793 35.1897 30.0028C35.1916 30.2125 35.1109 30.4146 34.9652 30.5655Z" fill="#6FD1DD"/>
<path d="M34.9652 30.5655L32.5652 32.9655C32.4152 33.1155 32.2117 33.1997 31.9996 33.1997C31.7875 33.1997 31.584 33.1155 31.434 32.9655L29.034 30.5655C28.8883 30.4146 28.8076 30.2125 28.8095 30.0028C28.8113 29.793 28.8954 29.5924 29.0438 29.444C29.1921 29.2957 29.3927 29.2116 29.6025 29.2098C29.8122 29.2079 30.0143 29.2886 30.1652 29.4343L31.1996 30.4687V27.5999C31.1996 27.3877 31.2839 27.1842 31.4339 27.0342C31.584 26.8842 31.7874 26.7999 31.9996 26.7999C32.2118 26.7999 32.4153 26.8842 32.5653 27.0342C32.7153 27.1842 32.7996 27.3877 32.7996 27.5999V30.4687L33.834 29.4343C33.9849 29.2886 34.187 29.2079 34.3967 29.2098C34.6065 29.2116 34.8071 29.2957 34.9555 29.444C35.1038 29.5924 35.1879 29.793 35.1897 30.0028C35.1916 30.2125 35.1109 30.4146 34.9652 30.5655Z" fill="#6FD1DD"/>
<path fill-rule="evenodd" clip-rule="evenodd" d="M37.9393 24.0602C36.364 22.4849 34.2274 21.5999 31.9996 21.5999C29.7718 21.5999 27.6352 22.4849 26.0599 24.0602C24.4846 25.6355 23.5996 27.7721 23.5996 29.9999C23.5996 32.2277 24.4846 34.3643 26.0599 35.9396C27.6352 37.5149 29.7718 38.3999 31.9996 38.3999C34.2274 38.3999 36.364 37.5149 37.9393 35.9396C39.5146 34.3643 40.3996 32.2277 40.3996 29.9999C40.3996 27.7721 39.5146 25.6355 37.9393 24.0602ZM36.5251 25.4744C35.3249 24.2742 33.697 23.5999 31.9996 23.5999C30.3022 23.5999 28.6744 24.2742 27.4741 25.4744C26.2739 26.6747 25.5996 28.3025 25.5996 29.9999C25.5996 31.6973 26.2739 33.3252 27.4741 34.5254C28.6744 35.7256 30.3022 36.3999 31.9996 36.3999C33.697 36.3999 35.3249 35.7256 36.5251 34.5254C37.7253 33.3252 38.3996 31.6973 38.3996 29.9999C38.3996 28.3025 37.7253 26.6747 36.5251 25.4744Z" fill="#6FD2DE"/>
<path fill-rule="evenodd" clip-rule="evenodd" d="M31.9996 23.5999C33.697 23.5999 35.3249 24.2742 36.5251 25.4744C37.7253 26.6747 38.3996 28.3025 38.3996 29.9999C38.3996 31.6973 37.7253 33.3252 36.5251 34.5254C35.3249 35.7256 33.697 36.3999 31.9996 36.3999C30.3022 36.3999 28.6744 35.7256 27.4741 34.5254C26.2739 33.3252 25.5996 31.6973 25.5996 29.9999C25.5996 28.3025 26.2739 26.6747 27.4741 25.4744C28.6744 24.2742 30.3022 23.5999 31.9996 23.5999V23.5999ZM34.9652 30.5655L32.5652 32.9655C32.4152 33.1155 32.2117 33.1997 31.9996 33.1997C31.7875 33.1997 31.584 33.1155 31.434 32.9655L29.034 30.5655C28.8883 30.4146 28.8076 30.2125 28.8095 30.0028C28.8113 29.793 28.8954 29.5924 29.0438 29.444C29.1921 29.2957 29.3927 29.2116 29.6025 29.2098C29.8122 29.2079 30.0143 29.2886 30.1652 29.4343L31.1996 30.4687V27.5999C31.1996 27.3877 31.2839 27.1842 31.4339 27.0342C31.584 26.8842 31.7874 26.7999 31.9996 26.7999C32.2118 26.7999 32.4153 26.8842 32.5653 27.0342C32.7153 27.1842 32.7996 27.3877 32.7996 27.5999V30.4687L33.834 29.4343C33.9849 29.2886 34.187 29.2079 34.3967 29.2098C34.6065 29.2116 34.8071 29.2957 34.9555 29.444C35.1038 29.5924 35.1879 29.793 35.1897 30.0028C35.1916 30.2125 35.1109 30.4146 34.9652 30.5655V30.5655Z" fill="#EBFCFE"/>
</g>
<defs>
<filter id="filter0_d_3660_373086" x="-1.5" y="2.5" width="50.7559" height="51" filterUnits="userSpaceOnUse" color-interpolation-filters="sRGB">
<feFlood flood-opacity="0" result="BackgroundImageFix"/>
<feColorMatrix in="SourceAlpha" type="matrix" values="0 0 0 0 0 0 0 0 0 0 0 0 0 0 0 0 0 0 127 0" result="hardAlpha"/>
<feOffset dy="4"/>
<feGaussianBlur stdDeviation="6"/>
<feComposite in2="hardAlpha" operator="out"/>
<feColorMatrix type="matrix" values="0 0 0 0 0.0582291 0 0 0 0 0.586714 0 0 0 0 0.658437 0 0 0 1 0"/>
<feBlend mode="normal" in2="BackgroundImageFix" result="effect1_dropShadow_3660_373086"/>
<feBlend mode="normal" in="SourceGraphic" in2="effect1_dropShadow_3660_373086" result="shape"/>
</filter>
<clipPath id="clip0_3660_373086">
<rect width="48" height="48" fill="white"/>
</clipPath>
</defs>
</svg>
